<?xml version="1.0" encoding="UTF-8" standalone="no"?>
<!DOCTYPE svg PUBLIC "-//W3C//DTD SVG 1.1//EN"
 "http://www.w3.org/Graphics/SVG/1.1/DTD/svg11.dtd">
<!-- Generated by graphviz version 2.38.0 (20140413.2041)
 -->
<!-- Title: controllers_diagram Pages: 1 -->
<svg width="656pt" height="542pt"
 viewBox="0.00 0.00 656.00 541.50" xmlns="http://www.w3.org/2000/svg" xmlns:xlink="http://www.w3.org/1999/xlink">
<g id="graph0" class="graph" transform="scale(1 1) rotate(0) translate(244 378)">
<title>controllers_diagram</title>
<polygon fill="white" stroke="none" points="-244,163.5 -244,-378 412,-378 412,163.5 -244,163.5"/>
<!-- _diagram_info -->
<g id="node1" class="node"><title>_diagram_info</title>
<text text-anchor="start" x="208" y="-263.6" font-family="Times,serif" font-size="13.00">Controllers diagram</text>
<text text-anchor="start" x="208" y="-249.6" font-family="Times,serif" font-size="13.00">Date: Nov 30 2014 &#45; 21:47</text>
<text text-anchor="start" x="208" y="-235.6" font-family="Times,serif" font-size="13.00">Migration version: 20130904124852</text>
<text text-anchor="start" x="208" y="-221.6" font-family="Times,serif" font-size="13.00">Generated by RailRoady 1.2.0</text>
<text text-anchor="start" x="208" y="-207.6" font-family="Times,serif" font-size="13.00">http://railroady.prestonlee.com</text>
</g>
<!-- ApplicationController -->
<g id="node2" class="node"><title>ApplicationController</title>
<path fill="none" stroke="black" d="M-67.5,159C-67.5,159 69.5,159 69.5,159 75.5,159 81.5,153 81.5,147 81.5,147 81.5,-117 81.5,-117 81.5,-123 75.5,-129 69.5,-129 69.5,-129 -67.5,-129 -67.5,-129 -73.5,-129 -79.5,-123 -79.5,-117 -79.5,-117 -79.5,147 -79.5,147 -79.5,153 -73.5,159 -67.5,159"/>
<text text-anchor="middle" x="1" y="-113.8" font-family="Times,serif" font-size="14.00">ApplicationController</text>
<polyline fill="none" stroke="black" points="-79.5,-106 81.5,-106 "/>
<polyline fill="none" stroke="black" points="-79.5,-82 81.5,-82 "/>
<text text-anchor="start" x="-71.5" y="-66.8" font-family="Times,serif" font-size="14.00">access_denied</text>
<text text-anchor="start" x="-71.5" y="-51.8" font-family="Times,serif" font-size="14.00">admin_denied</text>
<text text-anchor="start" x="-71.5" y="-36.8" font-family="Times,serif" font-size="14.00">admin_required</text>
<text text-anchor="start" x="-71.5" y="-21.8" font-family="Times,serif" font-size="14.00">current_user</text>
<text text-anchor="start" x="-71.5" y="-6.8" font-family="Times,serif" font-size="14.00">current_user=</text>
<text text-anchor="start" x="-71.5" y="8.2" font-family="Times,serif" font-size="14.00">is_admin?</text>
<text text-anchor="start" x="-71.5" y="23.2" font-family="Times,serif" font-size="14.00">logged_in?</text>
<text text-anchor="start" x="-71.5" y="38.2" font-family="Times,serif" font-size="14.00">login_from_basic_auth</text>
<text text-anchor="start" x="-71.5" y="53.2" font-family="Times,serif" font-size="14.00">login_from_session</text>
<text text-anchor="start" x="-71.5" y="68.2" font-family="Times,serif" font-size="14.00">login_required</text>
<text text-anchor="start" x="-71.5" y="83.2" font-family="Times,serif" font-size="14.00">redirect_back_or_default</text>
<text text-anchor="start" x="-71.5" y="98.2" font-family="Times,serif" font-size="14.00">set_locale</text>
<text text-anchor="start" x="-71.5" y="113.2" font-family="Times,serif" font-size="14.00">store_location</text>
<text text-anchor="start" x="-71.5" y="128.2" font-family="Times,serif" font-size="14.00">unforce_ssl</text>
<polyline fill="none" stroke="black" points="-79.5,136 81.5,136 "/>
<text text-anchor="start" x="-71.5" y="151.2" font-family="Times,serif" font-size="14.00">_layout</text>
</g>
<!-- BroadcastsController -->
<g id="node3" class="node"><title>BroadcastsController</title>
<path fill="none" stroke="black" d="M-87.5,-160.5C-87.5,-160.5 61.5,-160.5 61.5,-160.5 67.5,-160.5 73.5,-166.5 73.5,-172.5 73.5,-172.5 73.5,-361.5 73.5,-361.5 73.5,-367.5 67.5,-373.5 61.5,-373.5 61.5,-373.5 -87.5,-373.5 -87.5,-373.5 -93.5,-373.5 -99.5,-367.5 -99.5,-361.5 -99.5,-361.5 -99.5,-172.5 -99.5,-172.5 -99.5,-166.5 -93.5,-160.5 -87.5,-160.5"/>
<text text-anchor="middle" x="-13" y="-358.3" font-family="Times,serif" font-size="14.00">BroadcastsController</text>
<polyline fill="none" stroke="black" points="-99.5,-350.5 73.5,-350.5 "/>
<text text-anchor="start" x="-91.5" y="-335.3" font-family="Times,serif" font-size="14.00">create</text>
<text text-anchor="start" x="-91.5" y="-320.3" font-family="Times,serif" font-size="14.00">destroy</text>
<text text-anchor="start" x="-91.5" y="-305.3" font-family="Times,serif" font-size="14.00">index</text>
<text text-anchor="start" x="-91.5" y="-290.3" font-family="Times,serif" font-size="14.00">new</text>
<text text-anchor="start" x="-91.5" y="-275.3" font-family="Times,serif" font-size="14.00">show</text>
<polyline fill="none" stroke="black" points="-99.5,-267.5 73.5,-267.5 "/>
<polyline fill="none" stroke="black" points="-99.5,-243.5 73.5,-243.5 "/>
<text text-anchor="start" x="-91.5" y="-228.3" font-family="Times,serif" font-size="14.00">_layout</text>
<text text-anchor="start" x="-91.5" y="-213.3" font-family="Times,serif" font-size="14.00">broadcast_params</text>
<text text-anchor="start" x="-91.5" y="-198.3" font-family="Times,serif" font-size="14.00">set_broadcast</text>
<text text-anchor="start" x="-91.5" y="-183.3" font-family="Times,serif" font-size="14.00">set_current_page</text>
<text text-anchor="start" x="-91.5" y="-168.3" font-family="Times,serif" font-size="14.00">squelch_record_not_found</text>
</g>
<!-- HomeController -->
<g id="node4" class="node"><title>HomeController</title>
<path fill="none" stroke="black" d="M-228,139C-228,139 -140,139 -140,139 -134,139 -128,133 -128,127 -128,127 -128,43 -128,43 -128,37 -134,31 -140,31 -140,31 -228,31 -228,31 -234,31 -240,37 -240,43 -240,43 -240,127 -240,127 -240,133 -234,139 -228,139"/>
<text text-anchor="middle" x="-184" y="46.2" font-family="Times,serif" font-size="14.00">HomeController</text>
<polyline fill="none" stroke="black" points="-240,54 -128,54 "/>
<text text-anchor="start" x="-232" y="69.2" font-family="Times,serif" font-size="14.00">callback</text>
<text text-anchor="start" x="-232" y="84.2" font-family="Times,serif" font-size="14.00">index</text>
<polyline fill="none" stroke="black" points="-240,92 -128,92 "/>
<polyline fill="none" stroke="black" points="-240,116 -128,116 "/>
<text text-anchor="start" x="-232" y="131.2" font-family="Times,serif" font-size="14.00">_layout</text>
</g>
<!-- SessionsController -->
<g id="node5" class="node"><title>SessionsController</title>
<path fill="none" stroke="black" d="M-227.5,-0.5C-227.5,-0.5 -126.5,-0.5 -126.5,-0.5 -120.5,-0.5 -114.5,-6.5 -114.5,-12.5 -114.5,-12.5 -114.5,-111.5 -114.5,-111.5 -114.5,-117.5 -120.5,-123.5 -126.5,-123.5 -126.5,-123.5 -227.5,-123.5 -227.5,-123.5 -233.5,-123.5 -239.5,-117.5 -239.5,-111.5 -239.5,-111.5 -239.5,-12.5 -239.5,-12.5 -239.5,-6.5 -233.5,-0.5 -227.5,-0.5"/>
<text text-anchor="middle" x="-177" y="-108.3" font-family="Times,serif" font-size="14.00">SessionsController</text>
<polyline fill="none" stroke="black" points="-239.5,-100.5 -114.5,-100.5 "/>
<text text-anchor="start" x="-231.5" y="-85.3" font-family="Times,serif" font-size="14.00">create</text>
<text text-anchor="start" x="-231.5" y="-70.3" font-family="Times,serif" font-size="14.00">destroy</text>
<text text-anchor="start" x="-231.5" y="-55.3" font-family="Times,serif" font-size="14.00">new</text>
<polyline fill="none" stroke="black" points="-239.5,-47.5 -114.5,-47.5 "/>
<polyline fill="none" stroke="black" points="-239.5,-23.5 -114.5,-23.5 "/>
<text text-anchor="start" x="-231.5" y="-8.3" font-family="Times,serif" font-size="14.00">_layout</text>
</g>
<!-- UsersController -->
<g id="node6" class="node"><title>UsersController</title>
<path fill="none" stroke="black" d="M132.5,119C132.5,119 269.5,119 269.5,119 275.5,119 281.5,113 281.5,107 281.5,107 281.5,-157 281.5,-157 281.5,-163 275.5,-169 269.5,-169 269.5,-169 132.5,-169 132.5,-169 126.5,-169 120.5,-163 120.5,-157 120.5,-157 120.5,107 120.5,107 120.5,113 126.5,119 132.5,119"/>
<text text-anchor="middle" x="201" y="-153.8" font-family="Times,serif" font-size="14.00">UsersController</text>
<polyline fill="none" stroke="black" points="120.5,-146 281.5,-146 "/>
<text text-anchor="start" x="128.5" y="-130.8" font-family="Times,serif" font-size="14.00">create</text>
<text text-anchor="start" x="128.5" y="-115.8" font-family="Times,serif" font-size="14.00">destroy</text>
<text text-anchor="start" x="128.5" y="-100.8" font-family="Times,serif" font-size="14.00">edit</text>
<text text-anchor="start" x="128.5" y="-85.8" font-family="Times,serif" font-size="14.00">index</text>
<text text-anchor="start" x="128.5" y="-70.8" font-family="Times,serif" font-size="14.00">new</text>
<text text-anchor="start" x="128.5" y="-55.8" font-family="Times,serif" font-size="14.00">search</text>
<text text-anchor="start" x="128.5" y="-40.8" font-family="Times,serif" font-size="14.00">show</text>
<text text-anchor="start" x="128.5" y="-25.8" font-family="Times,serif" font-size="14.00">update</text>
<polyline fill="none" stroke="black" points="120.5,-18 281.5,-18 "/>
<polyline fill="none" stroke="black" points="120.5,6 281.5,6 "/>
<text text-anchor="start" x="128.5" y="21.2" font-family="Times,serif" font-size="14.00">_layout</text>
<text text-anchor="start" x="128.5" y="36.2" font-family="Times,serif" font-size="14.00">indicate_illegal_request</text>
<text text-anchor="start" x="128.5" y="51.2" font-family="Times,serif" font-size="14.00">search_fields</text>
<text text-anchor="start" x="128.5" y="66.2" font-family="Times,serif" font-size="14.00">set_current_page</text>
<text text-anchor="start" x="128.5" y="81.2" font-family="Times,serif" font-size="14.00">set_user</text>
<text text-anchor="start" x="128.5" y="96.2" font-family="Times,serif" font-size="14.00">show_record_not_found</text>
<text text-anchor="start" x="128.5" y="111.2" font-family="Times,serif" font-size="14.00">user_params</text>
</g>
</g>
</svg>
