<?xml version="1.0" encoding="UTF-8" standalone="no"?>
<!DOCTYPE svg PUBLIC "-//W3C//DTD SVG 1.1//EN"
 "http://www.w3.org/Graphics/SVG/1.1/DTD/svg11.dtd">
<!-- Generated by graphviz version 2.38.0 (20140413.2041)
 -->
<!-- Title: models_diagram Pages: 1 -->
<svg width="538pt" height="230pt"
 viewBox="0.00 0.00 538.00 230.00" xmlns="http://www.w3.org/2000/svg" xmlns:xlink="http://www.w3.org/1999/xlink">
<g id="graph0" class="graph" transform="scale(1 1) rotate(0) translate(4 226)">
<title>models_diagram</title>
<polygon fill="white" stroke="none" points="-4,4 -4,-226 534,-226 534,4 -4,4"/>
<!-- _diagram_info -->
<g id="node1" class="node"><title>_diagram_info</title>
<text text-anchor="start" x="8" y="-207.6" font-family="Times,serif" font-size="13.00">Models diagram</text>
<text text-anchor="start" x="8" y="-193.6" font-family="Times,serif" font-size="13.00">Date: Nov 30 2014 &#45; 21:47</text>
<text text-anchor="start" x="8" y="-179.6" font-family="Times,serif" font-size="13.00">Migration version: 20130904124852</text>
<text text-anchor="start" x="8" y="-165.6" font-family="Times,serif" font-size="13.00">Generated by RailRoady 1.2.0</text>
<text text-anchor="start" x="8" y="-151.6" font-family="Times,serif" font-size="13.00">http://railroady.prestonlee.com</text>
</g>
<!-- Broadcast -->
<g id="node2" class="node"><title>Broadcast</title>
<ellipse fill="none" stroke="black" cx="155" cy="-90" rx="48.1917" ry="18"/>
<text text-anchor="middle" x="155" y="-86.3" font-family="Times,serif" font-size="14.00">Broadcast</text>
</g>
<!-- Feed -->
<g id="node4" class="node"><title>Feed</title>
<ellipse fill="none" stroke="black" cx="155" cy="-18" rx="28.6953" ry="18"/>
<text text-anchor="middle" x="155" y="-14.3" font-family="Times,serif" font-size="14.00">Feed</text>
</g>
<!-- Broadcast&#45;&gt;Feed -->
<g id="edge1" class="edge"><title>Broadcast&#45;&gt;Feed</title>
<path fill="none" stroke="#e24dab" d="M155,-61.6651C155,-56.6867 155,-51.4906 155,-46.5072"/>
<polygon fill="#e24dab" stroke="#e24dab" points="155,-61.6966 150.5,-71.6966 155,-66.6966 155,-71.6966 155,-71.6966 155,-71.6966 155,-66.6966 159.5,-71.6967 155,-61.6966 155,-61.6966"/>
<polygon fill="#e24dab" stroke="#e24dab" points="155,-46.1043 159.5,-36.1043 155,-41.1043 155,-36.1043 155,-36.1043 155,-36.1043 155,-41.1043 150.5,-36.1044 155,-46.1043 155,-46.1043"/>
</g>
<!-- BroadcastService -->
<g id="node3" class="node"><title>BroadcastService</title>
<polygon fill="none" stroke="black" points="418,-201 302,-201 302,-165 418,-165 418,-201"/>
<text text-anchor="middle" x="360" y="-179.3" font-family="Times,serif" font-size="14.00">BroadcastService</text>
</g>
<!-- Image -->
<g id="node5" class="node"><title>Image</title>
<ellipse fill="none" stroke="black" cx="255" cy="-90" rx="33.5952" ry="18"/>
<text text-anchor="middle" x="255" y="-86.3" font-family="Times,serif" font-size="14.00">Image</text>
</g>
<!-- ImageService -->
<g id="node6" class="node"><title>ImageService</title>
<polygon fill="none" stroke="black" points="530,-201 436,-201 436,-165 530,-165 530,-201"/>
<text text-anchor="middle" x="483" y="-179.3" font-family="Times,serif" font-size="14.00">ImageService</text>
</g>
<!-- User -->
<g id="node7" class="node"><title>User</title>
<ellipse fill="none" stroke="black" cx="255" cy="-183" rx="28.6953" ry="18"/>
<text text-anchor="middle" x="255" y="-179.3" font-family="Times,serif" font-size="14.00">User</text>
</g>
<!-- User&#45;&gt;Broadcast -->
<g id="edge4" class="edge"><title>User&#45;&gt;Broadcast</title>
<path fill="none" stroke="#895d4f" d="M234.907,-161.321C229.207,-155.617 222.936,-149.489 217,-144 205.706,-133.555 192.833,-122.431 181.754,-113.085"/>
<ellipse fill="none" stroke="#895d4f" cx="238.009" cy="-164.453" rx="4.00002" ry="4.00002"/>
<polygon fill="#895d4f" stroke="#895d4f" points="181.717,-113.053 176.944,-103.181 177.885,-109.841 174.053,-106.629 174.053,-106.629 174.053,-106.629 177.885,-109.841 171.162,-110.078 181.717,-113.053 181.717,-113.053"/>
</g>
<!-- User&#45;&gt;Image -->
<g id="edge2" class="edge"><title>User&#45;&gt;Image</title>
<path fill="none" stroke="#834f99" d="M255,-156.729C255,-144.118 255,-128.905 255,-116.292"/>
<ellipse fill="none" stroke="#834f99" cx="255" cy="-160.884" rx="4" ry="4"/>
<ellipse fill="#834f99" stroke="#834f99" cx="255" cy="-112.04" rx="4" ry="4"/>
</g>
<!-- UserDetail -->
<g id="node8" class="node"><title>UserDetail</title>
<ellipse fill="none" stroke="black" cx="357" cy="-90" rx="50.0912" ry="18"/>
<text text-anchor="middle" x="357" y="-86.3" font-family="Times,serif" font-size="14.00">UserDetail</text>
</g>
<!-- User&#45;&gt;UserDetail -->
<g id="edge3" class="edge"><title>User&#45;&gt;UserDetail</title>
<path fill="none" stroke="#e4d096" d="M275.037,-161.26C280.736,-155.555 287.022,-149.443 293,-144 305.061,-133.02 318.952,-121.4 330.704,-111.848"/>
<ellipse fill="none" stroke="#e4d096" cx="271.937" cy="-164.395" rx="4.00002" ry="4.00002"/>
<ellipse fill="#e4d096" stroke="#e4d096" cx="333.877" cy="-109.285" rx="4.00002" ry="4.00002"/>
</g>
</g>
</svg>
