<?xml version="1.0" encoding="UTF-8" standalone="no"?>
<!DOCTYPE svg PUBLIC "-//W3C//DTD SVG 1.1//EN"
 "http://www.w3.org/Graphics/SVG/1.1/DTD/svg11.dtd">
<!-- Generated by graphviz version 2.38.0 (20140413.2041)
 -->
<!-- Title: models_diagram Pages: 1 -->
<svg width="616pt" height="461pt"
 viewBox="0.00 0.00 616.00 461.00" xmlns="http://www.w3.org/2000/svg" xmlns:xlink="http://www.w3.org/1999/xlink">
<g id="graph0" class="graph" transform="scale(1 1) rotate(0) translate(4 457)">
<title>models_diagram</title>
<polygon fill="white" stroke="none" points="-4,4 -4,-457 612,-457 612,4 -4,4"/>
<!-- _diagram_info -->
<g id="node1" class="node"><title>_diagram_info</title>
<text text-anchor="start" x="8" y="-394.1" font-family="Times,serif" font-size="13.00">Models diagram</text>
<text text-anchor="start" x="8" y="-380.1" font-family="Times,serif" font-size="13.00">Date: Nov 17 2014 &#45; 16:53</text>
<text text-anchor="start" x="8" y="-366.1" font-family="Times,serif" font-size="13.00">Migration version: 20130904124852</text>
<text text-anchor="start" x="8" y="-352.1" font-family="Times,serif" font-size="13.00">Generated by RailRoady 1.2.0</text>
<text text-anchor="start" x="8" y="-338.1" font-family="Times,serif" font-size="13.00">http://railroady.prestonlee.com</text>
</g>
<!-- Broadcast -->
<g id="node2" class="node"><title>Broadcast</title>
<path fill="none" stroke="black" d="M64.5,-136C64.5,-136 175.5,-136 175.5,-136 181.5,-136 187.5,-142 187.5,-148 187.5,-148 187.5,-230 187.5,-230 187.5,-236 181.5,-242 175.5,-242 175.5,-242 64.5,-242 64.5,-242 58.5,-242 52.5,-236 52.5,-230 52.5,-230 52.5,-148 52.5,-148 52.5,-142 58.5,-136 64.5,-136"/>
<text text-anchor="middle" x="120" y="-226.8" font-family="Times,serif" font-size="14.00">Broadcast</text>
<polyline fill="none" stroke="black" points="52.5,-219 187.5,-219 "/>
<text text-anchor="start" x="60.5" y="-203.8" font-family="Times,serif" font-size="14.00">id :integer</text>
<text text-anchor="start" x="60.5" y="-188.8" font-family="Times,serif" font-size="14.00">content :text</text>
<text text-anchor="start" x="60.5" y="-173.8" font-family="Times,serif" font-size="14.00">user_id :integer</text>
<text text-anchor="start" x="60.5" y="-158.8" font-family="Times,serif" font-size="14.00">created_at :datetime</text>
<text text-anchor="start" x="60.5" y="-143.8" font-family="Times,serif" font-size="14.00">updated_at :datetime</text>
</g>
<!-- Feed -->
<g id="node4" class="node"><title>Feed</title>
<path fill="none" stroke="black" d="M64.5,-0.5C64.5,-0.5 175.5,-0.5 175.5,-0.5 181.5,-0.5 187.5,-6.5 187.5,-12.5 187.5,-12.5 187.5,-79.5 187.5,-79.5 187.5,-85.5 181.5,-91.5 175.5,-91.5 175.5,-91.5 64.5,-91.5 64.5,-91.5 58.5,-91.5 52.5,-85.5 52.5,-79.5 52.5,-79.5 52.5,-12.5 52.5,-12.5 52.5,-6.5 58.5,-0.5 64.5,-0.5"/>
<text text-anchor="middle" x="120" y="-76.3" font-family="Times,serif" font-size="14.00">Feed</text>
<polyline fill="none" stroke="black" points="52.5,-68.5 187.5,-68.5 "/>
<text text-anchor="start" x="60.5" y="-53.3" font-family="Times,serif" font-size="14.00">id :integer</text>
<text text-anchor="start" x="60.5" y="-38.3" font-family="Times,serif" font-size="14.00">name :string</text>
<text text-anchor="start" x="60.5" y="-23.3" font-family="Times,serif" font-size="14.00">created_at :datetime</text>
<text text-anchor="start" x="60.5" y="-8.3" font-family="Times,serif" font-size="14.00">updated_at :datetime</text>
</g>
<!-- Broadcast&#45;&gt;Feed -->
<g id="edge1" class="edge"><title>Broadcast&#45;&gt;Feed</title>
<path fill="none" stroke="#e032e4" d="M120,-125.6C120,-117.718 120,-109.698 120,-101.943"/>
<polygon fill="#e032e4" stroke="#e032e4" points="120,-125.897 115.5,-135.897 120,-130.897 120,-135.897 120,-135.897 120,-135.897 120,-130.897 124.5,-135.897 120,-125.897 120,-125.897"/>
<polygon fill="#e032e4" stroke="#e032e4" points="120,-101.934 124.5,-91.9342 120,-96.9343 120,-91.9343 120,-91.9343 120,-91.9343 120,-96.9343 115.5,-91.9343 120,-101.934 120,-101.934"/>
</g>
<!-- BroadcastService -->
<g id="node3" class="node"><title>BroadcastService</title>
<polygon fill="none" stroke="black" points="380,-346.5 380,-392.5 496,-392.5 496,-346.5 380,-346.5"/>
<text text-anchor="middle" x="438" y="-377.3" font-family="Times,serif" font-size="14.00">BroadcastService</text>
<polyline fill="none" stroke="black" points="380,-369.5 496,-369.5 "/>
<text text-anchor="middle" x="438" y="-354.3" font-family="Times,serif" font-size="14.00"> </text>
</g>
<!-- Image -->
<g id="node5" class="node"><title>Image</title>
<path fill="none" stroke="black" d="M218,-128.5C218,-128.5 370,-128.5 370,-128.5 376,-128.5 382,-134.5 382,-140.5 382,-140.5 382,-237.5 382,-237.5 382,-243.5 376,-249.5 370,-249.5 370,-249.5 218,-249.5 218,-249.5 212,-249.5 206,-243.5 206,-237.5 206,-237.5 206,-140.5 206,-140.5 206,-134.5 212,-128.5 218,-128.5"/>
<text text-anchor="middle" x="294" y="-234.3" font-family="Times,serif" font-size="14.00">Image</text>
<polyline fill="none" stroke="black" points="206,-226.5 382,-226.5 "/>
<text text-anchor="start" x="214" y="-211.3" font-family="Times,serif" font-size="14.00">id :integer</text>
<text text-anchor="start" x="214" y="-196.3" font-family="Times,serif" font-size="14.00">user_id :integer</text>
<text text-anchor="start" x="214" y="-181.3" font-family="Times,serif" font-size="14.00">photo_file_name :string</text>
<text text-anchor="start" x="214" y="-166.3" font-family="Times,serif" font-size="14.00">photo_content_type :string</text>
<text text-anchor="start" x="214" y="-151.3" font-family="Times,serif" font-size="14.00">photo_file_size :integer</text>
<text text-anchor="start" x="214" y="-136.3" font-family="Times,serif" font-size="14.00">photo_updated_at :datetime</text>
</g>
<!-- ImageService -->
<g id="node6" class="node"><title>ImageService</title>
<polygon fill="none" stroke="black" points="514,-346.5 514,-392.5 608,-392.5 608,-346.5 514,-346.5"/>
<text text-anchor="middle" x="561" y="-377.3" font-family="Times,serif" font-size="14.00">ImageService</text>
<polyline fill="none" stroke="black" points="514,-369.5 608,-369.5 "/>
<text text-anchor="middle" x="561" y="-354.3" font-family="Times,serif" font-size="14.00"> </text>
</g>
<!-- User -->
<g id="node7" class="node"><title>User</title>
<path fill="none" stroke="black" d="M238.5,-286.5C238.5,-286.5 349.5,-286.5 349.5,-286.5 355.5,-286.5 361.5,-292.5 361.5,-298.5 361.5,-298.5 361.5,-440.5 361.5,-440.5 361.5,-446.5 355.5,-452.5 349.5,-452.5 349.5,-452.5 238.5,-452.5 238.5,-452.5 232.5,-452.5 226.5,-446.5 226.5,-440.5 226.5,-440.5 226.5,-298.5 226.5,-298.5 226.5,-292.5 232.5,-286.5 238.5,-286.5"/>
<text text-anchor="middle" x="294" y="-437.3" font-family="Times,serif" font-size="14.00">User</text>
<polyline fill="none" stroke="black" points="226.5,-429.5 361.5,-429.5 "/>
<text text-anchor="start" x="234.5" y="-414.3" font-family="Times,serif" font-size="14.00">id :integer</text>
<text text-anchor="start" x="234.5" y="-399.3" font-family="Times,serif" font-size="14.00">surname :string</text>
<text text-anchor="start" x="234.5" y="-384.3" font-family="Times,serif" font-size="14.00">firstname :string</text>
<text text-anchor="start" x="234.5" y="-369.3" font-family="Times,serif" font-size="14.00">phone :string</text>
<text text-anchor="start" x="234.5" y="-354.3" font-family="Times,serif" font-size="14.00">grad_year :integer</text>
<text text-anchor="start" x="234.5" y="-339.3" font-family="Times,serif" font-size="14.00">jobs :boolean</text>
<text text-anchor="start" x="234.5" y="-324.3" font-family="Times,serif" font-size="14.00">email :string</text>
<text text-anchor="start" x="234.5" y="-309.3" font-family="Times,serif" font-size="14.00">created_at :datetime</text>
<text text-anchor="start" x="234.5" y="-294.3" font-family="Times,serif" font-size="14.00">updated_at :datetime</text>
</g>
<!-- User&#45;&gt;Broadcast -->
<g id="edge4" class="edge"><title>User&#45;&gt;Broadcast</title>
<path fill="none" stroke="#846622" d="M220.399,-289.51C219.26,-288.33 218.126,-287.16 217,-286 205.449,-274.106 192.966,-261.541 180.922,-249.561"/>
<ellipse fill="none" stroke="#846622" cx="223.362" cy="-292.591" rx="4.00002" ry="4.00002"/>
<polygon fill="#846622" stroke="#846622" points="180.591,-249.233 176.662,-238.995 177.042,-245.711 173.492,-242.189 173.492,-242.189 173.492,-242.189 177.042,-245.711 170.323,-245.383 180.591,-249.233 180.591,-249.233"/>
</g>
<!-- User&#45;&gt;Image -->
<g id="edge2" class="edge"><title>User&#45;&gt;Image</title>
<path fill="none" stroke="#d73887" d="M294,-278.181C294,-271.377 294,-264.582 294,-257.952"/>
<ellipse fill="none" stroke="#d73887" cx="294" cy="-282.303" rx="4" ry="4"/>
<ellipse fill="#d73887" stroke="#d73887" cx="294" cy="-253.657" rx="4" ry="4"/>
</g>
<!-- UserDetail -->
<g id="node8" class="node"><title>UserDetail</title>
<path fill="none" stroke="black" d="M412,-136C412,-136 552,-136 552,-136 558,-136 564,-142 564,-148 564,-148 564,-230 564,-230 564,-236 558,-242 552,-242 552,-242 412,-242 412,-242 406,-242 400,-236 400,-230 400,-230 400,-148 400,-148 400,-142 406,-136 412,-136"/>
<text text-anchor="middle" x="482" y="-226.8" font-family="Times,serif" font-size="14.00">UserDetail</text>
<polyline fill="none" stroke="black" points="400,-219 564,-219 "/>
<text text-anchor="start" x="408" y="-203.8" font-family="Times,serif" font-size="14.00">id :integer</text>
<text text-anchor="start" x="408" y="-188.8" font-family="Times,serif" font-size="14.00">login :string</text>
<text text-anchor="start" x="408" y="-173.8" font-family="Times,serif" font-size="14.00">salt :string</text>
<text text-anchor="start" x="408" y="-158.8" font-family="Times,serif" font-size="14.00">crypted_password :string</text>
<text text-anchor="start" x="408" y="-143.8" font-family="Times,serif" font-size="14.00">user_id :integer</text>
</g>
<!-- User&#45;&gt;UserDetail -->
<g id="edge3" class="edge"><title>User&#45;&gt;UserDetail</title>
<path fill="none" stroke="#9c7e14" d="M367.494,-289.402C368.666,-288.256 369.836,-287.121 371,-286 384.329,-273.166 399.029,-259.888 413.249,-247.45"/>
<ellipse fill="none" stroke="#9c7e14" cx="364.454" cy="-292.405" rx="4.00002" ry="4.00002"/>
<ellipse fill="#9c7e14" stroke="#9c7e14" cx="416.292" cy="-244.801" rx="4.00002" ry="4.00002"/>
</g>
</g>
</svg>
